<?xml version="1.0" standalone="no"?>
<!DOCTYPE svg PUBLIC "-//W3C//DTD SVG 20010904//EN"
 "http://www.w3.org/TR/2001/REC-SVG-20010904/DTD/svg10.dtd">
<svg version="1.0" xmlns="http://www.w3.org/2000/svg"
 width="500.000000pt" height="500.000000pt" viewBox="0 0 500.000000 500.000000"
 preserveAspectRatio="xMidYMid meet">
<metadata>
Created by potrace 1.14, written by Peter Selinger 2001-2017
</metadata>
<g transform="translate(0.000000,500.000000) scale(0.100000,-0.100000)"
fill="#000000" stroke="none">
<path d="M0 2500 l0 -2500 2500 0 2500 0 0 2500 0 2500 -2500 0 -2500 0 0
-2500z m2573 2220 c89 -56 186 -239 227 -429 24 -111 57 -404 67 -596 5 -82 6
-456 5 -830 l-4 -680 -19 65 c-26 87 -85 348 -98 435 -6 39 -18 144 -26 235
-17 183 -41 297 -80 386 -97 220 -203 211 -291 -24 -34 -89 -50 -172 -69 -353
-9 -84 -25 -206 -36 -269 -23 -134 -89 -410 -118 -490 l-20 -55 3 855 c3 879
4 882 46 1189 37 269 152 510 271 569 59 29 86 28 142 -8z m-603 -819 c5 -11
35 -97 65 -193 l55 -173 3 -745 2 -745 -43 -89 c-53 -112 -134 -233 -211 -316
l-60 -65 -1 979 0 978 56 177 c31 97 60 184 66 194 12 23 55 22 68 -2z m1106
11 c7 -4 38 -86 70 -182 l59 -175 2 -985 3 -985 -35 40 c-120 136 -214 290
-264 430 -22 60 -22 64 -19 775 l3 715 59 175 c32 96 63 181 68 188 12 13 37
16 54 4z m-558 -600 c37 3 74 8 83 12 13 6 21 -7 41 -61 33 -88 45 -146 65
-323 13 -118 17 -286 20 -897 l4 -753 -56 0 -56 0 -20 -44 c-10 -24 -22 -66
-26 -93 -6 -39 -8 -44 -13 -23 -4 14 -10 -96 -14 -245 -11 -426 -23 -421 -24
10 0 222 4 370 9 355 l8 -25 -2 25 c-2 31 -47 43 -47 13 0 -15 2 -16 10 -3 6
10 9 -108 9 -340 -2 -336 -2 -350 -14 -255 -7 55 -14 190 -15 300 -1 110 -5
191 -9 180 -6 -15 -9 -10 -15 24 -3 23 -16 60 -26 82 l-20 39 -66 0 -65 0 4
758 c4 889 15 1031 87 1224 21 56 21 57 51 46 16 -6 60 -8 97 -6z m-274 -2084
l-17 -58 -189 0 -188 0 -1 -37 -2 -38 -6 35 -6 35 -147 3 -147 3 14 38 c30 86
64 132 199 271 78 80 164 173 190 208 70 92 128 195 115 203 -8 4 2 40 30 108
48 116 119 360 147 500 l19 95 3 -655 c3 -592 1 -659 -14 -711z m606 952 c17
-56 47 -138 66 -183 20 -45 38 -88 41 -94 3 -7 -2 -13 -11 -13 -12 0 -9 -11
15 -52 72 -122 142 -210 267 -338 163 -165 197 -212 226 -307 l7 -23 -155 0
-156 0 -1 -37 -2 -38 -6 35 -6 35 -167 3 c-154 2 -168 4 -168 21 0 9 -11 40
-25 67 l-25 49 1 630 0 630 34 -141 c18 -78 48 -187 65 -244z m-438 -930 c26
-36 47 -146 54 -297 l7 -132 -128 -3 -128 -3 6 150 c6 150 23 247 53 293 13
20 22 23 66 20 41 -2 55 -8 70 -28z m350 -6 c27 -46 46 -151 54 -296 l7 -127
-128 -3 -128 -3 6 155 c6 156 21 239 52 286 14 22 22 25 68 22 45 -3 53 -6 69
-34z m-1042 -168 l115 -11 3 -52 c2 -29 -1 -53 -5 -53 -4 0 -77 16 -160 36
l-153 36 0 29 c0 28 2 29 43 28 23 -1 94 -6 157 -13z m1760 -15 l0 -29 -149
-36 c-82 -20 -157 -36 -166 -36 -13 0 -16 9 -13 53 l3 52 115 11 c63 6 136 12
163 13 46 1 47 0 47 -28z m-1405 -14 l130 -12 -3 -80 c-2 -43 -4 -80 -5 -82
-2 -1 -80 17 -175 39 l-172 42 0 53 0 53 48 -1 c26 0 106 -6 177 -12z m1065
-41 c0 -43 -4 -56 -17 -60 -32 -9 -275 -66 -284 -66 -5 0 -9 36 -9 79 l0 79
98 7 c53 3 102 8 107 10 6 2 31 4 58 4 l47 1 0 -54z m-1180 -129 c97 -24 135
-37 135 -47 0 -12 -27 -15 -157 -18 l-158 -3 0 56 c0 52 1 55 23 50 12 -3 83
-20 157 -38z m1250 -12 l0 -55 -160 0 c-135 0 -160 2 -160 15 0 8 12 18 28 22
15 4 86 21 157 39 72 17 131 32 133 33 1 1 2 -24 2 -54z m-1112 -107 l-3 -43
-157 -3 -158 -3 0 46 0 45 161 0 160 0 -3 -42z m1112 -3 l0 -45 -160 0 -160 0
0 45 0 45 160 0 160 0 0 -45z m-1112 -137 l3 -78 -167 0 c-147 0 -165 2 -160
16 3 9 6 45 6 80 l0 65 158 -3 157 -3 3 -77z m1112 2 l0 -80 -160 0 -160 0 0
80 0 80 160 0 160 0 0 -80z m-1088 -150 l16 -60 -198 0 -198 0 5 23 c3 12 9
39 14 60 l10 37 167 0 168 0 16 -60z m1107 16 c20 -82 34 -76 -185 -76 -177 0
-196 2 -190 16 4 9 11 36 17 60 l11 44 168 0 168 0 11 -44z"/>
<path d="M1875 3760 c3 -5 30 -10 60 -10 30 0 57 5 60 10 4 6 -18 10 -60 10
-42 0 -64 -4 -60 -10z"/>
<path d="M1873 3503 c37 -2 97 -2 135 0 37 2 6 3 -68 3 -74 0 -105 -1 -67 -3z"/>
<path d="M1873 3273 c37 -2 97 -2 135 0 37 2 6 3 -68 3 -74 0 -105 -1 -67 -3z"/>
<path d="M1810 2920 c0 -6 50 -10 131 -10 84 0 128 4 124 10 -4 6 -58 10 -131
10 -76 0 -124 -4 -124 -10z"/>
<path d="M1873 2273 c37 -2 97 -2 135 0 37 2 6 3 -68 3 -74 0 -105 -1 -67 -3z"/>
<path d="M1810 1779 c0 -62 2 -70 18 -67 14 3 18 16 20 71 3 62 1 67 -18 67
-18 0 -20 -6 -20 -71z"/>
<path d="M2990 3760 c0 -6 27 -10 60 -10 33 0 60 4 60 10 0 6 -27 10 -60 10
-33 0 -60 -4 -60 -10z"/>
<path d="M2983 3503 c37 -2 97 -2 135 0 37 2 6 3 -68 3 -74 0 -105 -1 -67 -3z"/>
<path d="M2983 3273 c37 -2 97 -2 135 0 37 2 6 3 -68 3 -74 0 -105 -1 -67 -3z"/>
<path d="M2920 2920 c0 -6 50 -10 130 -10 80 0 130 4 130 10 0 6 -50 10 -130
10 -80 0 -130 -4 -130 -10z"/>
<path d="M2983 2273 c37 -2 97 -2 135 0 37 2 6 3 -68 3 -74 0 -105 -1 -67 -3z"/>
<path d="M3140 1780 c0 -63 2 -70 20 -70 18 0 20 7 20 70 0 63 -2 70 -20 70
-18 0 -20 -7 -20 -70z"/>
<path d="M2423 3029 c-35 -10 -83 -61 -83 -89 0 -11 9 -19 25 -22 14 -3 25 -1
25 4 0 5 11 20 25 33 20 20 34 25 78 25 56 0 107 -26 107 -54 0 -9 9 -12 25
-8 32 6 32 32 0 71 -39 46 -121 62 -202 40z m166 -23 c22 -12 51 -52 51 -71 0
-14 -26 -1 -50 25 -26 28 -33 30 -95 30 -62 0 -69 -2 -95 -30 -29 -31 -50 -39
-50 -19 0 6 15 26 34 45 32 32 38 34 105 34 43 0 83 -6 100 -14z"/>
<path d="M2482 1205 c0 -16 2 -22 5 -12 2 9 2 23 0 30 -3 6 -5 -1 -5 -18z"/>
<path d="M2542 1190 c0 -19 2 -27 5 -17 2 9 2 25 0 35 -3 9 -5 1 -5 -18z"/>
</g>
</svg>
